<svg enable-background="new 0 0 213.652 213.652" viewBox="0 0 213.652 213.652" xmlns="http://www.w3.org/2000/svg"><path d="m106.826 213.652c-.378 0-.757-.007-1.142-.021-3.864-.143-17.262-.781-27.405-3.01-12.45-2.736-19.411-4.522-25.294-7.268-4.635-2.164-6.084-5.398-6.531-7.397-4.644-1.036-19.254-4.993-30.908-15.75-4.998-4.614-7.912-9.053-9.585-12.889-.023-.048-.044-.098-.064-.148-2.993-6.964-1.898-11.904-1.824-12.22.027-.113.064-.224.11-.332l35.816-82.71c-.314-3.679-1.308-24.146 12.828-44.862 13.298-19.488 36.826-21.658 43.965-21.856v-3.189c0-1.104.896-2 2-2h16.067c1.104 0 2 .896 2 2v3.189c7.138.197 30.666 2.366 43.967 21.856 14.135 20.715 13.141 41.183 12.827 44.862l35.815 82.71c.047.107.084.218.11.332.075.314 1.161 5.215-1.788 12.135-.039.12-.089.236-.15.347-1.681 3.81-4.587 8.207-9.535 12.774-11.654 10.757-26.264 14.714-30.907 15.75-.446 1.999-1.896 5.233-6.531 7.397-5.885 2.746-12.845 4.531-25.294 7.268-10.143 2.229-23.542 2.867-27.406 3.01-.384.016-.762.022-1.141.022zm-56.586-19.645c.018.127.023.259.016.392-.001.098-.012 3.261 4.42 5.33 5.543 2.587 12.304 4.314 24.461 6.985 9.816 2.158 22.915 2.78 26.695 2.92.669.024 1.318.024 1.984 0 3.782-.14 16.88-.763 26.696-2.92 12.157-2.671 18.918-4.398 24.462-6.985 4.433-2.068 4.421-5.231 4.419-5.365-.003-.114.005-.226.021-.336-.454-2.182-2.198-9.937-6.045-20.479-3.266-8.948-8.076-16.328-10.485-19.723-1.016.917-2.287 1.555-3.692 1.794-1.223 1.865-7.064 10.257-16.845 16.189-10.561 6.406-18.49 9.04-18.896 9.173-.2.066-.411.101-.626.101-.217 0-.429-.035-.63-.102-.456-.149-8.367-2.788-18.893-9.172-9.779-5.932-15.622-14.324-16.843-16.189-1.406-.239-2.678-.878-3.694-1.794-2.409 3.395-7.22 10.774-10.484 19.723-3.834 10.508-5.58 18.247-6.041 20.458zm-40.302-27.572c1.518 3.197 4.072 6.91 8.321 10.832 10.307 9.514 23.415 13.414 28.348 14.611.533-2.374 1.599-6.693 3.415-12.385.368-1.261 2.38-8.93 2.373-25.768-.008-18.56-5.359-38.844-5.471-39.262-.004-.016-.008-.032-.012-.048 0-.001 0-.002 0-.003-.114-.471-.051-.945.148-1.351 0-.001.001-.002.001-.003.043-.088.093-.172.148-.252.247-.358.611-.638 1.056-.775.001 0 .002 0 .004-.001.033-.01.066-.019.1-.028h.003c.044-.011.089-.021.133-.028l46.149-8.698c.823-.155 1.656.219 2.086.938.43.718.367 1.629-.158 2.282l-25.235 31.343c-.364.453-.908.725-1.489.745-.599.008-1.143-.214-1.537-.641l-15.796-17.083c1.646 7.784 3.863 20.549 3.869 32.866.001 3.8-.096 7.148-.255 10.078 3.4-6.833 6.993-11.852 8.395-13.711-.136-.558-.208-1.141-.208-1.74 0-4.066 3.308-7.375 7.375-7.375 2.079 0 3.959.864 5.301 2.252l22.623-39.486c1.646-2.872 4.243-4.519 7.128-4.519s5.482 1.647 7.128 4.519l2.974 5.19c.025.04.049.081.07.123l19.635 34.269c1.347-1.444 3.266-2.348 5.392-2.348 4.066 0 7.375 3.309 7.375 7.375 0 .6-.072 1.183-.208 1.741 1.476 1.957 5.374 7.408 8.921 14.787-.194-3.179-.318-6.882-.316-11.155.005-12.667 2.35-25.808 4.007-33.518l-16.398 17.735c-.396.427-.965.649-1.537.641-.581-.02-1.125-.292-1.489-.745l-25.235-31.343c-.525-.653-.589-1.563-.158-2.282.43-.718 1.255-1.096 2.086-.938l46.048 8.678c.238-.025.486-.009.734.057 1.066.286 1.7 1.382 1.414 2.449-.055.204-5.463 20.624-5.471 39.267-.009 18.439 2.406 25.883 2.43 25.956.155.463.131.943-.034 1.365 1.521 4.924 2.443 8.677 2.927 10.83 4.938-1.203 18.064-5.117 28.348-14.609 4.244-3.918 6.794-7.634 8.312-10.838l-38.238-90.902c-1.017-1.435-10.149-13.701-26.165-15.303-15.357-1.536-20.057 6.244-20.705 7.487-.203 1.475-1.132 4.963-5.379 6.622-2.067.808-3.679.411-4.667-.063-.678-.325-1.246-.768-1.716-1.25-.473.488-1.045.938-1.732 1.267-1.417.68-3.032.701-4.667.063-4.293-1.677-5.195-5.222-5.385-6.668-.643-1.231-5.345-9.008-20.699-7.474-16.013 1.598-25.144 13.854-26.168 15.3zm64.97-11.446c2.21 2.986 7.214 8.999 14.469 13.399 8.541 5.181 15.406 7.836 17.449 8.575 2.042-.738 8.907-3.394 17.448-8.575 7.255-4.4 12.259-10.413 14.47-13.399-2.244-1.088-3.857-3.282-4.128-5.869h-55.58c-.27 2.587-1.883 4.781-4.128 5.869zm-66.971 1.027c-.087.49-.306 2.139.112 4.594l36.531-86.842c.048-.114.107-.224.175-.327.413-.625 10.329-15.326 29.198-17.213 15.332-1.533 21.818 5.32 23.962 8.485 1.441-.316 3.605-.633 5.421-.244 1.465.314 2.642 1.062 3.499 1.799.855-.732 2.025-1.471 3.479-1.782 1.816-.39 3.979-.073 5.421.244 2.145-3.165 8.631-10.021 23.963-8.485 18.868 1.887 28.785 16.589 29.198 17.214.068.104.127.213.175.327l36.52 86.815c.421-2.462.205-4.113.123-4.585l-35.938-82.992c-.141-.324-.192-.679-.151-1.029.024-.211 2.294-21.592-12.104-42.693-12.053-17.664-34.092-19.844-40.684-20.094v44.714c4.577-3.25 13.323-8.306 23.086-7.922 13.947.542 25.446 11.496 25.93 11.962.794.767.815 2.032.05 2.826-.766.795-2.031.819-2.827.053-.107-.104-10.907-10.362-23.308-10.844-12.366-.46-23.479 9.415-23.591 9.514-.588.529-1.433.661-2.152.342-.722-.321-1.188-1.037-1.188-1.827v-50.843c0-.1.008-.198.021-.294v-2.889h-12.067v2.885c.015.097.022.196.022.297v50.843c0 .79-.466 1.505-1.188 1.827-.722.321-1.566.187-2.153-.342-.11-.1-11.216-9.992-23.59-9.514-12.401.481-23.201 10.74-23.309 10.844-.794.765-2.061.743-2.827-.053-.766-.795-.744-2.059.05-2.826.483-.466 11.982-11.42 25.93-11.962 9.75-.392 18.508 4.672 23.085 7.921v-44.713c-6.59.249-28.63 2.429-40.684 20.094-14.394 21.101-12.125 42.482-12.101 42.696.041.349-.012.704-.151 1.026zm134.014-11.042c-1.861 0-3.375 1.514-3.375 3.375s1.514 3.375 3.375 3.375 3.375-1.514 3.375-3.375-1.514-3.375-3.375-3.375zm-70.25 0c-1.861 0-3.375 1.514-3.375 3.375s1.514 3.375 3.375 3.375 3.375-1.514 3.375-3.375-1.514-3.375-3.375-3.375zm53.78.147h7.498l-7.498-13.087zm-8.327 0h4.327v-20.036c0-.011 0-.021 0-.032l-4.327-7.553zm-8.328 0h4.328v-34.602l-2.744-4.79c-.442-.772-.983-1.384-1.584-1.811zm-8.328 0h4.328v-41.302c-.659.428-1.252 1.076-1.73 1.91l-2.614 4.562c.011.085.017.171.017.259v34.571zm-8.327 0h4.328v-27.877l-4.344 7.583c.011.085.017.171.017.259v20.035zm-11.644 0h7.644v-13.342zm43.059-36.913 20.381 25.314 16.909-18.287zm-70.809 7.028 16.909 18.287 20.381-25.314zm46.638-46.742c.377.741 1.099 1.592 2.476 2.13.791.308 1.224.18 1.482.056.463-.222.844-.695 1.116-1.139-.466-.455-1.159-.984-1.99-1.162-.867-.185-2.062-.068-3.084.115zm9.761 1.052c.274.444.653.906 1.112 1.122.257.12.688.245 1.473-.061 1.355-.53 2.076-1.364 2.458-2.1-1.065-.188-2.243-.287-3.066-.112-.822.177-1.51.697-1.977 1.151zm29.182 31.666c-3.932 0-7.845-.355-11.275-1.309-6.486-1.802-10.436-6.403-11.421-13.306-.08-.556-.129-1.151-.146-1.768-.181-6.607 3.656-12.958 9.773-16.181 4.746-2.501 10.194-3.77 16.193-3.77 16.55 0 22.635 13.847 22.988 20.553.304 5.772-2.602 13.038-11.786 14.519-4.136.668-9.247 1.262-14.326 1.262zm3.124-32.333c-5.343 0-10.163 1.113-14.328 3.309-4.78 2.519-7.779 7.438-7.641 12.531.014.464.05.906.107 1.312v.001c.755 5.284 3.625 8.654 8.532 10.017 7.546 2.096 18.208.87 23.895-.047 8.256-1.331 8.538-8.266 8.429-10.359-.186-3.541-3.958-16.764-18.994-16.764zm-66.188 32.333c-5.08 0-10.189-.594-14.327-1.261-9.185-1.481-12.089-8.747-11.785-14.519.353-6.706 6.437-20.553 22.988-20.553 5.998 0 11.446 1.268 16.193 3.77 6.118 3.224 9.954 9.574 9.773 16.18-.017.614-.065 1.209-.145 1.769-.986 6.904-4.936 11.505-11.422 13.307-3.43.951-7.344 1.307-11.275 1.307zm-3.124-32.333c-15.037 0-18.807 13.223-18.994 16.763-.11 2.094.172 9.028 8.428 10.359 5.687.918 16.353 2.144 23.895.047 4.907-1.363 7.777-4.733 8.532-10.017.058-.408.094-.85.107-1.313.139-5.094-2.859-10.013-7.639-12.531-4.167-2.195-8.988-3.308-14.329-3.308zm39.754 26.426h-10.197c-1.104 0-2-.896-2-2s.896-2 2-2h10.197c1.104 0 2 .896 2 2s-.895 2-2 2zm-1.945-6.047h-6.306c-1.104 0-2-.896-2-2s.896-2 2-2h6.306c1.104 0 2 .896 2 2s-.895 2-2 2zm0-6.133h-6.306c-1.104 0-2-.896-2-2s.896-2 2-2h6.306c1.104 0 2 .896 2 2s-.895 2-2 2z"/></svg>